<svg width="25" height="25" viewBox="0 0 25 25" fill="none" xmlns="http://www.w3.org/2000/svg">
<g clip-path="url(#clip0_133_1094)">
<path d="M18.4422 8.32698C18.2836 8.17284 18.0611 8.10279 17.8433 8.1386C17.6251 8.17428 17.4367 8.31126 17.3355 8.50782C16.9874 9.18408 16.5452 9.80554 16.025 10.3549C16.0769 9.95805 16.103 9.55883 16.103 9.15854C16.103 8.39047 16 7.60008 15.7969 6.80903C15.1291 4.21077 13.3779 2.01345 10.9924 0.780528C10.7848 0.673223 10.5373 0.67699 10.333 0.790575C10.1286 0.904206 9.99482 1.11254 9.9765 1.34557C9.79054 3.70675 8.57432 5.85491 6.63784 7.24062C6.61221 7.25909 6.58677 7.27779 6.56133 7.29639C6.50863 7.33495 6.45895 7.37142 6.41253 7.40202C6.40528 7.40686 6.39807 7.41179 6.391 7.41686C5.1731 8.28884 4.16819 9.4512 3.48477 10.7786C2.79034 12.1289 2.43823 13.5778 2.43823 15.085C2.43823 15.8529 2.54117 16.6433 2.74419 17.4345C3.81562 21.6047 7.56848 24.5172 11.8705 24.5172C17.0711 24.5172 21.3021 20.2859 21.3021 15.085C21.3021 12.5203 20.2865 10.1202 18.4422 8.32698Z" fill="black"/>
<circle cx="11.4116" cy="14.7133" r="2.80172" fill="white"/>
</g>
<defs>
<clipPath id="clip0_133_1094">
<rect width="23.8146" height="23.8146" fill="white" transform="translate(0.205566 0.702637)"/>
</clipPath>
</defs>
</svg>
