<svg width="550" height="221" viewBox="0 0 550 221" fill="none" xmlns="http://www.w3.org/2000/svg">
<g clip-path="url(#clip0_61_485)">
<path d="M123.068 18H35.9305C23.2661 18 12.9995 29.4938 12.9995 43.672V183.328C12.9995 197.506 23.2661 209 35.9305 209H123.068C135.733 209 146 197.506 146 183.328V43.672C146 29.4938 135.733 18 123.068 18Z" fill="#28A263"/>
<path d="M72.3126 171H73.8656V186H72.3126V171.115V171ZM73.3479 184.397C72.4161 184.397 71.6914 184.282 71.0702 183.939C70.4969 183.612 70.0005 183.141 69.6207 182.565C69.2066 181.992 68.9995 181.305 68.9995 180.504H70.7596C70.7596 181.191 71.0702 181.649 71.4843 182.221C72.002 182.565 72.6232 182.794 73.4515 182.794C74.0315 182.815 74.6054 182.657 75.108 182.336C75.5221 182.107 75.7292 181.649 75.7292 181.191C75.7292 180.733 75.6257 180.389 75.3151 180.046C75.108 179.817 74.5903 179.588 73.8656 179.473L72.2091 179.015C71.1737 178.786 70.449 178.443 69.9313 177.87C69.5172 177.412 69.3101 176.725 69.3101 175.924C69.3101 175.237 69.4136 174.779 69.8278 174.206C70.1715 173.694 70.6376 173.297 71.1737 173.061C71.6914 172.718 72.4161 172.603 73.1409 172.603C73.8294 172.61 74.5055 172.807 75.108 173.176C75.6482 173.51 76.1093 173.981 76.4539 174.55C76.8681 175.122 77.0751 175.695 77.0751 176.267H75.4186C75.3894 175.882 75.2435 175.519 75.0045 175.237C74.7854 174.934 74.5004 174.697 74.1762 174.55C73.7822 174.374 73.3581 174.295 72.9338 174.321C72.4161 174.321 71.8985 174.435 71.4843 174.779C71.3134 174.901 71.1752 175.072 71.0841 175.273C70.9931 175.474 70.9525 175.699 70.9667 175.924C70.9667 176.267 71.0702 176.611 71.3808 176.84L72.8303 177.527L74.5903 178.099C75.5221 178.328 76.1433 178.672 76.661 179.244C76.9716 179.702 77.2822 180.389 77.2822 181.191C77.2822 181.878 77.0751 182.45 76.7645 182.908C76.4539 183.366 75.9363 183.71 75.4186 184.053C74.7974 184.282 74.0727 184.397 73.3479 184.397ZM80.5953 172.947H82.0448V184.168H80.4918V172.832L80.5953 172.947ZM78.214 174.664H78.6281C79.2493 174.664 79.6635 174.55 80.0776 174.206C80.3882 173.863 80.5953 173.405 80.5953 172.947H81.32C81.32 173.634 81.2165 174.206 81.0094 174.779C80.8151 175.289 80.4805 175.718 80.0531 176.006C79.6256 176.294 79.127 176.425 78.6281 176.382H78.214V174.664ZM87.8427 184.397C87.0533 184.422 86.277 184.17 85.6257 183.676C84.9745 183.182 84.4819 182.472 84.219 181.649C83.8988 180.658 83.7581 179.608 83.8048 178.557C83.8048 177.412 83.9084 176.267 84.219 175.466C84.5111 174.638 85.0147 173.922 85.6684 173.405C86.2896 172.832 87.0144 172.603 87.8427 172.603C88.6709 172.603 89.3957 172.832 90.0169 173.405C90.6381 173.863 91.0522 174.55 91.4663 175.351C92.1772 177.377 92.1772 179.623 91.4663 181.649C91.1742 182.477 90.6706 183.193 90.0169 183.71C89.3957 184.168 88.6709 184.397 87.9462 184.397H87.8427ZM87.8427 182.794C88.3603 182.794 88.878 182.565 89.1886 182.221C89.6027 181.878 89.8098 181.42 90.0169 180.733C90.2368 179.994 90.3418 179.22 90.3275 178.443C90.3275 177.641 90.3275 176.84 90.0169 176.153C89.8098 175.58 89.6027 175.122 89.1886 174.779C88.8165 174.416 88.3388 174.212 87.8427 174.206C87.3465 174.212 86.8688 174.416 86.4967 174.779C86.1861 175.122 85.8755 175.58 85.6684 176.267C85.4485 177.006 85.3435 177.78 85.3578 178.557C85.3578 179.359 85.3578 180.16 85.6684 180.847C85.8755 181.42 86.1861 181.992 86.4967 182.221C86.9109 182.565 87.325 182.794 87.8427 182.794Z" fill="white"/>
</g>
<g clip-path="url(#clip1_61_485)">
<path d="M220.568 18H130.43C118.594 18 108.999 28.7353 108.999 41.9779V185.022C108.999 198.265 118.594 209 130.43 209H220.568C232.404 209 241.999 198.265 241.999 185.022V41.9779C241.999 28.7353 232.404 18 220.568 18Z" fill="#4CB57F"/>
<path d="M166.703 186H168.119V184.397C170.298 184.168 171.715 183.023 171.715 181.305C171.715 179.588 170.734 178.672 168.991 178.099L168.119 177.87V174.321C169.209 174.55 169.863 175.351 169.972 176.267H171.606C171.497 174.55 169.972 173.061 168.119 172.718V171H166.703V172.718C164.742 172.947 163.435 174.092 163.435 175.809C163.435 177.527 164.306 178.443 166.485 178.901H166.703V182.794C165.614 182.45 164.851 181.649 164.851 180.504H162.999C163.108 182.565 164.415 183.939 166.594 184.282V186H166.703ZM164.96 175.809C164.96 174.893 165.723 174.321 166.703 174.206V177.412C165.614 177.069 164.96 176.611 164.96 175.809ZM168.228 182.908V179.359C169.863 179.817 170.298 180.389 170.298 181.191C170.298 182.107 169.427 182.794 168.119 182.908H168.228ZM173.022 182.45V184.168H180.649V182.679H175.201C178.905 180.389 180.649 178.328 180.649 176.267C180.649 174.092 179.123 172.603 176.835 172.603C174.656 172.603 173.022 174.206 172.913 176.382H174.547C174.547 175.008 175.528 174.092 176.835 174.092C178.143 174.092 179.014 174.893 179.014 176.267C179.014 177.87 177.38 179.702 173.022 182.45ZM186.641 184.397C189.256 184.397 190.999 182.107 190.999 178.443C190.999 174.893 189.256 172.718 186.641 172.718C184.026 172.718 182.392 174.893 182.392 178.443C182.392 182.107 184.026 184.397 186.75 184.397H186.641ZM183.917 178.557C183.917 175.809 185.007 174.092 186.641 174.092C188.384 174.092 189.365 175.809 189.365 178.443C189.365 181.191 188.275 182.908 186.641 182.908C185.007 182.908 183.917 181.191 183.917 178.557Z" fill="white"/>
</g>
<g clip-path="url(#clip2_61_485)">
<path d="M315.068 18H227.93C215.266 18 204.999 29.4938 204.999 43.672V183.328C204.999 197.506 215.266 209 227.93 209H315.068C327.732 209 337.999 197.506 337.999 183.328V43.672C337.999 29.4938 327.732 18 315.068 18Z" fill="#66DEA2"/>
<path d="M262.462 170.173H263.838V185.356H262.462V170.289V170.173ZM263.288 183.733C262.554 183.733 261.912 183.618 261.362 183.27C260.823 182.978 260.362 182.493 260.036 181.876C259.711 181.259 259.534 180.535 259.528 179.793H261.087C261.087 180.488 261.27 180.952 261.729 181.531C262.187 181.879 262.646 182.111 263.379 182.111C263.893 182.133 264.401 181.972 264.846 181.647C265.305 181.415 265.488 180.952 265.488 180.488C265.488 180.025 265.305 179.677 265.121 179.329C264.846 179.097 264.48 178.866 263.838 178.75L262.279 178.286C261.362 178.054 260.72 177.707 260.354 177.127C259.984 176.634 259.763 175.993 259.73 175.315C259.696 174.637 259.852 173.965 260.17 173.418C260.475 172.899 260.887 172.498 261.362 172.259C261.912 171.911 262.462 171.795 263.196 171.795C263.775 171.821 264.34 172.02 264.846 172.375C265.358 172.698 265.799 173.176 266.13 173.766L266.68 175.504H265.121C265.096 175.114 264.966 174.747 264.755 174.461C264.561 174.155 264.308 173.915 264.021 173.766C263.701 173.604 263.358 173.525 263.013 173.534C262.462 173.534 262.096 173.65 261.729 173.998C261.56 174.106 261.42 174.272 261.322 174.477C261.225 174.682 261.175 174.918 261.179 175.157C261.179 175.504 261.362 175.852 261.545 176.084L262.829 176.779L264.48 177.359C265.213 177.591 265.855 177.938 266.222 178.518C266.588 178.981 266.772 179.677 266.772 180.488C266.772 181.184 266.68 181.763 266.313 182.227C266.038 182.69 265.672 183.038 265.121 183.386C264.53 183.632 263.91 183.75 263.288 183.733ZM267.872 179.677L270.623 172.027H271.998L269.156 180.14L268.606 179.677H274.749V181.3H267.872V179.677ZM271.998 176.663H273.373V183.502H271.998V176.663ZM279.333 183.618C278.661 183.628 278.002 183.378 277.445 182.901C276.887 182.425 276.459 181.745 276.216 180.952C275.901 179.957 275.745 178.894 275.757 177.822C275.757 176.663 275.941 175.504 276.216 174.693C276.475 173.855 276.921 173.13 277.499 172.607C278.05 172.027 278.691 171.795 279.333 171.795C279.975 171.795 280.8 172.027 281.259 172.607C281.824 173.099 282.269 173.781 282.542 174.577C283.172 176.628 283.172 178.901 282.542 180.952C282.284 181.79 281.838 182.515 281.259 183.038C280.8 183.502 280.158 183.733 279.425 183.733L279.333 183.618ZM279.333 182.111C279.883 182.111 280.25 181.879 280.525 181.531C280.892 181.184 281.167 180.72 281.35 180.025C281.545 179.277 281.638 178.493 281.626 177.707C281.626 176.895 281.534 176.084 281.35 175.388C281.167 174.809 280.892 174.345 280.525 173.998C280.22 173.655 279.833 173.451 279.425 173.418C278.986 173.425 278.563 173.63 278.233 173.998C277.866 174.345 277.591 174.809 277.408 175.504C277.213 176.252 277.12 177.036 277.133 177.822C277.133 178.634 277.224 179.445 277.408 180.14C277.591 180.72 277.866 181.3 278.233 181.531C278.508 181.879 278.967 182.111 279.425 182.111H279.333Z" fill="white"/>
</g>
<g clip-path="url(#clip3_61_485)">
<path d="M411.069 18H323.931C311.267 18 301 29.4938 301 43.672V183.328C301 197.506 311.267 209 323.931 209H411.069C423.734 209 434 197.506 434 183.328V43.672C434 29.4938 423.734 18 411.069 18Z" fill="#2BB970"/>
<path d="M357.975 169H359.37V182H357.975V169.099V169ZM358.812 180.611C358.068 180.611 357.417 180.511 356.86 180.214C356.313 179.964 355.846 179.549 355.515 179.02C355.185 178.492 355.006 177.872 355 177.237H356.581C356.581 177.832 356.767 178.229 357.232 178.725C357.696 179.023 358.161 179.221 358.905 179.221C359.457 179.259 360.007 179.121 360.485 178.824C360.857 178.626 361.043 178.229 361.043 177.832C361.043 177.435 360.857 177.137 360.671 176.84C360.392 176.641 360.021 176.443 359.37 176.344L357.882 175.947C356.953 175.748 356.209 175.45 355.837 174.954C355.465 174.557 355.279 173.962 355.279 173.267C355.279 172.672 355.372 172.275 355.651 171.779C355.96 171.334 356.378 170.991 356.86 170.786C357.417 170.489 357.975 170.389 358.719 170.389C359.306 170.411 359.879 170.581 360.392 170.885C360.911 171.162 361.358 171.571 361.694 172.076C362.066 172.573 362.159 173.069 362.252 173.565H360.671C360.645 173.231 360.514 172.916 360.299 172.672C360.103 172.409 359.847 172.204 359.556 172.076C359.231 171.937 358.883 171.87 358.533 171.878C357.975 171.878 357.603 171.977 357.232 172.275C357.061 172.368 356.918 172.51 356.819 172.686C356.721 172.861 356.67 173.063 356.674 173.267C356.674 173.565 356.86 173.863 357.046 174.061L358.347 174.656L360.021 175.153C360.764 175.351 361.415 175.649 361.787 176.145C362.159 176.542 362.345 177.137 362.345 177.832C362.345 178.427 362.252 178.924 361.88 179.321C361.601 179.718 361.229 180.015 360.671 180.313C360.207 180.511 359.556 180.611 358.812 180.611ZM366.807 180.611C366.157 180.611 365.506 180.511 364.948 180.214C364.501 179.994 364.116 179.652 363.832 179.221C363.522 178.722 363.36 178.134 363.367 177.534H364.855C364.855 178.031 365.041 178.527 365.413 178.725C365.785 179.023 366.25 179.221 366.807 179.221C367.179 179.221 367.551 179.221 367.737 179.023C368.109 178.924 368.388 178.725 368.481 178.427C368.667 178.229 368.76 177.931 368.76 177.634C368.76 177.137 368.481 176.641 368.109 176.443C367.54 176.107 366.899 175.936 366.25 175.947V174.656C366.621 174.656 366.993 174.656 367.365 174.458L368.109 173.962L368.295 173.168C368.295 172.771 368.202 172.473 367.923 172.176C367.644 171.977 367.272 171.779 366.807 171.779C366.342 171.779 365.878 171.977 365.599 172.176C365.44 172.283 365.307 172.429 365.21 172.601C365.113 172.774 365.055 172.968 365.041 173.168H363.739C363.737 172.676 363.866 172.194 364.111 171.779C364.394 171.348 364.779 171.006 365.227 170.786C365.709 170.553 366.232 170.433 366.761 170.433C367.29 170.433 367.813 170.553 368.295 170.786C368.76 170.985 369.132 171.382 369.41 171.779C369.596 172.176 369.782 172.672 369.782 173.168L369.503 174.359C369.308 174.709 369.015 174.986 368.667 175.153C368.29 175.347 367.877 175.449 367.458 175.45V174.954C367.979 174.936 368.494 175.073 368.946 175.351C369.318 175.55 369.596 175.847 369.875 176.244C370.061 176.641 370.154 177.137 370.154 177.634C370.172 178.19 370.043 178.74 369.782 179.221C369.503 179.618 369.039 180.015 368.574 180.214C367.997 180.515 367.356 180.652 366.714 180.611H366.807ZM375.361 180.611C374.652 180.633 373.955 180.414 373.37 179.986C372.785 179.558 372.343 178.943 372.107 178.229C371.787 177.377 371.629 176.467 371.642 175.55C371.642 174.557 371.828 173.565 372.107 172.87C372.369 172.153 372.821 171.532 373.408 171.084C373.966 170.588 374.617 170.389 375.268 170.389C375.918 170.389 376.755 170.588 377.22 171.084C377.793 171.505 378.244 172.09 378.521 172.771C379.16 174.527 379.16 176.473 378.521 178.229C378.259 178.947 377.807 179.567 377.22 180.015C376.755 180.412 376.104 180.611 375.361 180.611ZM375.361 179.221C375.732 179.221 376.197 179.023 376.476 178.725C376.848 178.427 377.127 178.031 377.313 177.435C377.51 176.795 377.605 176.124 377.592 175.45C377.592 174.756 377.499 174.061 377.313 173.466C377.127 172.969 376.848 172.573 376.476 172.275C376.166 171.981 375.774 171.807 375.361 171.779C374.915 171.784 374.486 171.96 374.152 172.275C373.78 172.573 373.501 172.969 373.315 173.565C373.118 174.205 373.023 174.876 373.036 175.55C373.036 176.244 373.129 176.939 373.315 177.534C373.501 178.031 373.78 178.527 374.152 178.725C374.431 179.023 374.896 179.221 375.361 179.221Z" fill="white"/>
</g>
<g clip-path="url(#clip4_61_485)">
<path d="M508.55 18H418.449C406.603 18 397 28.7454 397 42.0004V185C397 198.255 406.603 209 418.449 209H508.55C520.396 209 530 198.255 530 185V42.0004C530 28.7454 520.396 18 508.55 18Z" fill="#28A263"/>
<path fill-rule="evenodd" clip-rule="evenodd" d="M463.541 43.4366C455.554 43.4366 449.079 51.6228 449.079 61.718C449.079 71.8143 455.554 79.9994 463.541 79.9994C471.529 79.9994 478.004 71.8143 478.004 61.718C478.004 51.6228 471.529 43.4366 463.541 43.4366ZM447.013 61.7191C447.013 50.181 454.413 40.8276 463.542 40.8276C472.671 40.8276 480.071 50.181 480.071 61.7191C480.071 73.2584 472.671 82.6118 463.542 82.6118C454.414 82.6118 447.013 73.2584 447.013 61.7191ZM459.493 55.2008C460.203 54.3524 461.144 53.8811 462.122 53.8841H462.51V48.6604H464.575V53.8841H465.005C465.74 53.9211 466.452 54.2253 467.055 54.7603L467.899 55.5137L466.707 57.6475L465.864 56.8941C465.591 56.6536 465.27 56.5153 464.938 56.4954H462.121C461.66 56.4954 461.228 56.7156 460.916 57.0911C460.768 57.2657 460.65 57.4767 460.568 57.711C460.487 57.9454 460.444 58.1982 460.443 58.4542C460.443 58.9525 460.606 59.444 460.916 59.8172C461.228 60.1915 461.66 60.4129 462.121 60.4129H464.962C465.94 60.4129 466.886 60.88 467.592 61.7296C467.943 62.1479 468.223 62.6521 468.414 63.2114C468.606 63.7707 468.706 64.3735 468.707 64.983C468.706 65.5925 468.606 66.1953 468.414 66.7546C468.223 67.3139 467.943 67.818 467.592 68.2364C466.882 69.085 465.94 69.5564 464.962 69.553H464.575V74.7768H462.509V69.553H462.079C461.343 69.516 460.631 69.2118 460.028 68.6768L459.185 67.9234L460.376 65.7897L461.219 66.543C461.484 66.7783 461.806 66.9197 462.146 66.9417H464.962C465.423 66.9417 465.856 66.7215 466.167 66.346C466.477 65.9728 466.64 65.4814 466.64 64.983C466.64 64.4846 466.477 63.9932 466.167 63.62C465.841 63.2341 465.41 63.0209 464.962 63.0242H462.121C461.143 63.0276 460.202 62.5562 459.491 61.7076C459.14 61.2892 458.861 60.785 458.669 60.2257C458.477 59.6664 458.377 59.0637 458.376 58.4542C458.376 57.221 458.784 56.0515 459.491 55.2008H459.493Z" fill="white"/>
<path d="M427.724 143.892H429.795V140.805C433.937 140.613 436.52 138.518 436.52 135.266C436.52 132.454 434.704 130.442 431.483 129.505L429.795 129.009V121.237C431.892 121.76 433.579 123.469 433.886 125.564H436.136C435.778 122.201 433.042 119.555 429.795 119.087V116H427.724V119.059C423.914 119.363 421.562 121.512 421.562 124.875C421.562 127.576 423.352 129.395 426.931 130.332L427.724 130.553V138.628C425.244 138.104 423.608 136.285 423.352 133.584H421C421.383 137.581 423.94 140.227 427.724 140.75V143.892ZM423.71 124.792C423.71 122.67 425.269 121.319 427.724 121.099V128.403C425.014 127.548 423.71 126.363 423.71 124.792ZM429.795 138.766V131.104L430.358 131.242C433.145 131.986 434.423 133.198 434.423 135.018C434.423 137.222 432.633 138.628 429.795 138.766ZM438.379 135.872H447.149V140.42H449.245V135.872H452.288V133.695H449.245V127.493H447.149V133.695H440.731L446.637 119.418H444.285L438.379 133.97V135.872ZM453.704 144.333H455.085L456.543 137.195H453.704V144.333ZM464.748 140.833C468.788 140.833 471.626 137.746 471.626 133.336C471.626 128.899 469.044 125.784 465.362 125.784C463.419 125.784 461.706 126.694 460.683 128.1L461.731 121.595H470.578V119.418H460.044L458.382 130.938L460.402 131.324C461.373 129.037 462.856 127.879 464.851 127.879C467.689 127.879 469.504 130.112 469.504 133.336C469.504 136.506 467.561 138.766 464.748 138.766C462.14 138.766 460.325 136.809 460.325 134.053H458.279C458.382 138.049 461.041 140.833 464.748 140.833ZM481.522 140.833C485.69 140.833 488.323 138.049 488.323 133.557C488.323 129.119 485.741 126.336 481.624 126.336C479.093 126.336 476.843 127.824 476.025 129.974C476.408 124.213 478.454 121.044 481.803 121.044C484.079 121.044 485.613 122.367 485.971 124.627H488.17C487.582 121.154 485.204 119.004 481.803 119.004C476.997 119.004 474.235 122.918 474.235 129.974C474.235 136.947 476.869 140.833 481.522 140.833ZM476.69 133.557C476.69 130.525 478.633 128.375 481.42 128.375C484.232 128.375 486.201 130.525 486.201 133.557C486.201 136.644 484.232 138.821 481.42 138.821C478.633 138.821 476.69 136.644 476.69 133.557ZM498.457 140.833C503.085 140.833 506 136.644 506 129.891C506 123.194 503.085 119.004 498.457 119.004C493.854 119.004 490.94 123.221 490.94 129.974C490.94 136.671 493.854 140.833 498.457 140.833ZM493.036 129.974C493.036 124.544 495.133 121.154 498.457 121.154C501.806 121.154 503.928 124.517 503.928 129.891C503.928 135.293 501.806 138.656 498.457 138.656C495.133 138.656 493.036 135.321 493.036 129.974ZM444.119 178.809H445.61L443.325 174.955C444.403 174.497 445.065 173.489 445.065 172.149C445.065 170.311 443.823 169.087 441.964 169.087H438.52V178.809H439.774V175.211H442.166L444.119 178.809ZM439.774 173.947V170.337H441.964C443.089 170.337 443.834 171.064 443.834 172.149C443.834 173.234 443.089 173.947 441.965 173.947H439.774ZM449.442 179C450.98 179 452.259 177.903 452.46 176.513H451.229C451.016 177.291 450.294 177.814 449.442 177.814C448.223 177.814 447.442 176.971 447.347 175.607H452.531V175.364C452.531 172.825 451.004 171.625 449.335 171.625C447.417 171.625 446.175 173.234 446.175 175.313C446.175 177.546 447.477 179 449.442 179ZM447.417 174.522C447.655 173.489 448.364 172.8 449.335 172.8C450.353 172.8 451.075 173.476 451.229 174.522H447.417ZM455.65 178.809H457.224L459.709 171.817H458.468L456.431 177.763L454.407 171.817H453.176L455.65 178.809ZM463.533 179C465.072 179 466.35 177.903 466.551 176.513H465.32C465.107 177.291 464.385 177.814 463.533 177.814C462.314 177.814 461.533 176.971 461.438 175.607H466.622V175.364C466.622 172.825 465.095 171.625 463.426 171.625C461.508 171.625 460.266 173.234 460.266 175.313C460.266 177.546 461.568 179 463.533 179ZM461.508 174.522C461.746 173.489 462.455 172.8 463.426 172.8C464.444 172.8 465.166 173.476 465.32 174.522H461.508ZM472.885 174.968V178.809H474.093V174.841C474.093 172.864 473.052 171.625 471.417 171.625C470.518 171.625 469.784 172.008 469.31 172.646V171.817H468.103V178.809H469.31V175.083C469.31 173.641 469.997 172.8 471.146 172.8C472.223 172.8 472.885 173.628 472.885 174.968ZM476.863 175.657V171.817H475.656V175.785C475.656 177.763 476.697 179 478.332 179C479.23 179 479.964 178.618 480.438 177.979V178.809H481.645V171.817H480.438V175.543C480.438 176.984 479.752 177.827 478.603 177.827C477.525 177.827 476.863 176.997 476.863 175.657ZM486.39 179C487.929 179 489.207 177.903 489.408 176.513H488.177C487.965 177.291 487.242 177.814 486.39 177.814C485.171 177.814 484.39 176.971 484.295 175.607H489.479V175.364C489.479 172.825 487.953 171.625 486.283 171.625C484.366 171.625 483.124 173.234 483.124 175.313C483.124 177.546 484.425 179 486.39 179ZM484.366 174.522C484.603 173.489 485.313 172.8 486.283 172.8C487.302 172.8 488.023 173.476 488.177 174.522H484.366Z" fill="white"/>
</g>
<defs>
<clipPath id="clip0_61_485">
<rect width="132.954" height="215.579" fill="white" transform="translate(12.7026 4.89844)"/>
</clipPath>
<clipPath id="clip1_61_485">
<rect width="132.967" height="215.58" fill="white" transform="translate(108.739 4.89844)"/>
</clipPath>
<clipPath id="clip2_61_485">
<rect width="132.954" height="215.579" fill="white" transform="translate(204.788 4.89844)"/>
</clipPath>
<clipPath id="clip3_61_485">
<rect width="132.954" height="215.579" fill="white" transform="translate(300.824 4.89844)"/>
</clipPath>
<clipPath id="clip4_61_485">
<rect width="132.967" height="215.58" fill="white" transform="translate(396.861 4.89844)"/>
</clipPath>
</defs>
</svg>
