<svg width="23" height="28" viewBox="0 0 23 28" fill="none" xmlns="http://www.w3.org/2000/svg">
<path d="M19.513 8.96432C19.3197 8.78309 19.0483 8.70073 18.7828 8.74284C18.5167 8.78478 18.287 8.94584 18.1636 9.17695C17.7392 9.97205 17.2001 10.7027 16.5658 11.3486C16.629 10.8821 16.6609 10.4127 16.6609 9.94203C16.6609 9.03897 16.5354 8.10966 16.2877 7.17959C15.4734 4.12469 13.3382 1.54119 10.4298 0.0915808C10.1766 -0.0345836 9.87488 -0.0301539 9.62574 0.103393C9.37661 0.236995 9.21345 0.481941 9.19111 0.755926C8.96437 3.53209 7.48148 6.05778 5.12042 7.68704C5.08917 7.70875 5.05815 7.73073 5.02713 7.75261C4.96287 7.79795 4.90231 7.84082 4.84571 7.8768C4.83686 7.88249 4.82807 7.88829 4.81945 7.89425C3.33452 8.91948 2.10927 10.2861 1.27601 11.8469C0.429305 13.4344 0 15.138 0 16.9101C0 17.8129 0.125502 18.7422 0.373048 19.6724C1.6794 24.5756 6.2551 28 11.5003 28C17.8413 28 23 23.0251 23 16.9101C23 13.8946 21.7616 11.0728 19.513 8.96432Z" fill="#1E1E1E"/>
<ellipse cx="10.9434" cy="16.4709" rx="3.41603" ry="3.29413" fill="white"/>
</svg>
