<svg width="32" height="32" viewBox="0 0 32 32" fill="none" xmlns="http://www.w3.org/2000/svg">
<path d="M16.464 30C18.049 30 18.9856 28.8513 18.9856 27.1282C18.9856 24.1846 17.1844 22.6051 16.9683 16.7897C21.9395 19.8769 22.3718 22.1744 24.8934 23.682C25.5418 24.041 26.0461 24.1846 26.6225 24.1846C27.487 24.1846 28.2075 23.7538 28.7118 22.9641C28.928 22.6051 29 22.1744 29 21.7436C29 20.8821 28.4236 20.0205 27.415 19.4462C24.8213 18.0103 22.4438 18.7282 17.3285 16.0718C22.4438 13.2718 24.8213 13.9897 27.415 12.5538C28.4236 11.9077 29 11.118 29 10.1846C29 9.82564 28.928 9.39487 28.7118 8.9641C28.2075 8.17436 27.487 7.74359 26.6225 7.74359C26.0461 7.74359 25.5418 7.88718 24.8934 8.24615C22.3718 9.75384 21.9395 12.2667 16.9683 15.2821C17.1124 9.46667 18.9856 7.81539 18.9856 4.8C18.9856 3.07692 18.049 2 16.464 2C14.951 2 14.0144 3.07692 14.0144 4.8C14.0144 7.81539 16.0317 9.39487 16.1758 15.2821C11.0605 12.1949 10.6282 9.75384 8.03458 8.24615C7.45821 7.88718 6.95389 7.74359 6.37752 7.74359C5.51297 7.74359 4.79251 8.17436 4.28818 8.9641C4.07205 9.39487 4 9.82564 4 10.1846C4 11.118 4.57637 11.9077 5.58501 12.5538C8.17867 13.9897 10.4121 13.2718 15.6715 16.0718C10.5562 18.8 8.10663 18.0103 5.58501 19.4462C4.57637 20.0205 4 20.8821 4 21.7436C4 22.1744 4.07205 22.6051 4.28818 22.9641C4.79251 23.7538 5.51297 24.1846 6.37752 24.1846C6.95389 24.1846 7.45821 24.041 8.03458 23.682C10.6282 22.1744 11.0605 19.9487 16.1037 16.7897C15.8876 22.6769 14.0144 24.1128 14.0144 27.1282C14.0144 28.8513 14.951 30 16.464 30Z" fill="#28A263"/>
</svg>
